<svg xmlns="http://www.w3.org/2000/svg" viewBox="0 0 500.34 106.82"><defs><style>.cls-1{fill:#252525;}</style></defs><title>Recurso 1halley3</title><g id="Capa_2" data-name="Capa 2"><g id="Capa_1-2" data-name="Capa 1"><path class="cls-1" d="M34.75,26.63a17.31,17.31,0,0,1,6.73,7.82v-10H58.31v55a31.75,31.75,0,0,1-3,13.91,22.75,22.75,0,0,1-9.11,9.85Q40.1,106.82,31,106.82q-12.48,0-19.95-5.89a23.93,23.93,0,0,1-9-16H18.81a8.37,8.37,0,0,0,3.61,5.25,13.11,13.11,0,0,0,7.38,1.88,11.86,11.86,0,0,0,8.46-3q3.23-3,3.22-9.65V69.7a17.31,17.31,0,0,1-6.73,7.82,20.05,20.05,0,0,1-10.89,2.87A22.38,22.38,0,0,1,11.63,77a23.37,23.37,0,0,1-8.51-9.85A34.11,34.11,0,0,1,0,52.07,34,34,0,0,1,3.12,37a23.41,23.41,0,0,1,8.51-9.8,22.38,22.38,0,0,1,12.23-3.42A20.05,20.05,0,0,1,34.75,26.63ZM20.54,42.17q-3.32,3.57-3.31,9.9T20.54,62a11.42,11.42,0,0,0,8.76,3.56,11.46,11.46,0,0,0,8.77-3.66q3.41-3.66,3.41-9.81t-3.41-9.85a11.53,11.53,0,0,0-8.77-3.61A11.42,11.42,0,0,0,20.54,42.17Z"/><path class="cls-1" d="M95.09,26.83a20.85,20.85,0,0,1,10.84-3V42h-4.85q-6.73,0-10.45,2.87t-3.71,9.7V79.7H70V24.45H86.92v10.4A24,24,0,0,1,95.09,26.83Z"/><path class="cls-1" d="M144.94,26.63a17.31,17.31,0,0,1,6.73,7.82v-10H168.5V79.7H151.67v-10a17.31,17.31,0,0,1-6.73,7.82,20.05,20.05,0,0,1-10.89,2.87A22.36,22.36,0,0,1,121.82,77a23.3,23.3,0,0,1-8.51-9.85,34.11,34.11,0,0,1-3.12-15.05A34,34,0,0,1,113.31,37a23.34,23.34,0,0,1,8.51-9.8,22.36,22.36,0,0,1,12.23-3.42A20.05,20.05,0,0,1,144.94,26.63ZM130.73,42.17q-3.31,3.57-3.32,9.9T130.73,62a12.43,12.43,0,0,0,17.52-.1q3.42-3.66,3.42-9.81t-3.42-9.85a12.5,12.5,0,0,0-17.52,0Z"/><path class="cls-1" d="M212.06,26.63a16.69,16.69,0,0,1,6.63,7.82v-28h16.93V79.7H218.69v-10a16.69,16.69,0,0,1-6.63,7.82,20.05,20.05,0,0,1-10.89,2.87A22.38,22.38,0,0,1,188.94,77a23.3,23.3,0,0,1-8.51-9.85,34.11,34.11,0,0,1-3.12-15.05A34,34,0,0,1,180.43,37a23.34,23.34,0,0,1,8.51-9.8,22.38,22.38,0,0,1,12.23-3.42A20.05,20.05,0,0,1,212.06,26.63ZM197.85,42.17q-3.32,3.57-3.31,9.9T197.85,62a12.45,12.45,0,0,0,17.53-.1q3.41-3.66,3.41-9.81t-3.41-9.85a12.51,12.51,0,0,0-17.53,0Z"/><path class="cls-1" d="M248.49,2.52a11.91,11.91,0,0,1,14.65,0,8.29,8.29,0,0,1,2.78,6.39,8.17,8.17,0,0,1-2.78,6.29,11.91,11.91,0,0,1-14.65,0,8.16,8.16,0,0,1-2.77-6.29A8.28,8.28,0,0,1,248.49,2.52Zm15.74,21.93V79.7H247.3V24.45Z"/><path class="cls-1" d="M327.89,55.14H289.57q.3,6.24,3.17,9a10.22,10.22,0,0,0,7.33,2.73,10,10,0,0,0,6.24-1.89,8.77,8.77,0,0,0,3.26-4.85h17.92a23.47,23.47,0,0,1-4.75,10.45,25.27,25.27,0,0,1-9.31,7.23,31.76,31.76,0,0,1-27-.8,24.27,24.27,0,0,1-9.85-9.85A30.51,30.51,0,0,1,273,52.07,30.74,30.74,0,0,1,276.56,37a24,24,0,0,1,9.85-9.8,32.45,32.45,0,0,1,28.9-.05A23.76,23.76,0,0,1,325,36.58a28.22,28.22,0,0,1,3.41,14A23.25,23.25,0,0,1,327.89,55.14ZM308.33,39.85a10.71,10.71,0,0,0-7.47-2.72,11.06,11.06,0,0,0-7.72,2.77c-2.05,1.85-3.2,4.55-3.47,8.12h21.59C311.32,44.39,310.35,41.66,308.33,39.85Z"/><path class="cls-1" d="M387.34,30.2q5.58,6.33,5.59,17.42V79.7H376V49.6c0-3.7-1-6.58-2.92-8.66a10.15,10.15,0,0,0-7.77-3.12,10.58,10.58,0,0,0-8.17,3.27c-2,2.17-3,5.28-3,9.3V79.7H337.19V24.45h16.93v10.1a18.26,18.26,0,0,1,7.08-7.82,20.78,20.78,0,0,1,11-2.87Q381.75,23.86,387.34,30.2Z"/><path class="cls-1" d="M435.4,65.14V79.7h-7.62q-9.7,0-15.1-4.81T407.29,59V38.71h-7.43V24.45h7.43V10.89h16.92V24.45H435.3V38.71H424.21V59.3c0,2.18.45,3.7,1.34,4.56s2.39,1.28,4.51,1.28Z"/><path class="cls-1" d="M476.78,26.63a17.25,17.25,0,0,1,6.73,7.82v-10h16.83V79.7H483.51v-10a17.25,17.25,0,0,1-6.73,7.82,20,20,0,0,1-10.89,2.87A22.32,22.32,0,0,1,453.67,77a23.32,23.32,0,0,1-8.52-9.85A34.11,34.11,0,0,1,442,52.07,34,34,0,0,1,445.15,37a23.36,23.36,0,0,1,8.52-9.8,22.32,22.32,0,0,1,12.22-3.42A20,20,0,0,1,476.78,26.63Zm-14.2,15.54q-3.33,3.57-3.32,9.9T462.58,62a12.43,12.43,0,0,0,17.52-.1q3.42-3.66,3.41-9.81t-3.41-9.85a12.5,12.5,0,0,0-17.52,0Z"/></g></g></svg>